<svg width="150" height="150" viewBox="0 0 150 150" fill="none" xmlns="http://www.w3.org/2000/svg">
<path d="M55.9285 95.7693L54.8611 105.85C54.775 106.664 55.0381 107.475 55.5854 108.083C56.1323 108.691 56.912 109.038 57.7301 109.038H88.232C89.0497 109.038 89.8294 108.691 90.3767 108.083C90.9237 107.475 91.1867 106.664 91.101 105.85L90.0336 95.7693H128.027C133.94 95.7693 138.751 90.9587 138.751 85.0453V10.724C138.75 4.81062 133.939 0 128.026 0H15.6277C9.71431 0 4.90369 4.81062 4.90369 10.724V85.0453C4.90369 90.9587 9.71431 95.7693 15.6277 95.7693H55.9285ZM85.0253 103.269H60.936L61.7299 95.7693H84.231L85.0253 103.269ZM15.6277 5.76951H128.026C130.758 5.76951 132.981 7.99193 132.981 10.724V76.1537H10.6732V10.724C10.6732 7.99193 12.8956 5.76951 15.6277 5.76951ZM10.6732 85.0453V81.9232H132.98V85.0453C132.98 87.7774 130.758 89.9998 128.026 89.9998H15.6277C12.8956 89.9998 10.6732 87.7774 10.6732 85.0453Z" fill="#F4F5F7"/>
<path d="M127.947 128.42C128.47 127.559 128.505 126.487 128.04 125.592L122.343 114.631C121.846 113.676 120.86 113.076 119.783 113.076H23.8708C22.7946 113.076 21.8076 113.676 21.311 114.631L15.6135 125.592C15.1488 126.487 15.1842 127.559 15.7073 128.42C16.2304 129.282 17.1655 129.807 18.1732 129.807H125.481C126.488 129.808 127.424 129.282 127.947 128.42ZM22.9238 124.038L25.6224 118.846H118.031L120.73 124.038H22.9238Z" fill="#F4F5F7"/>
<path d="M132.981 135H128.365C121.685 135 116.25 140.435 116.25 147.115C116.25 148.708 117.541 150 119.134 150H142.211C143.804 150 145.096 148.708 145.096 147.115C145.096 140.435 139.661 135 132.981 135ZM122.714 144.23C123.766 142.178 125.904 140.769 128.365 140.769H132.981C135.442 140.769 137.58 142.178 138.633 144.23H122.714Z" fill="#F4F5F7"/>
</svg>
