<svg width="170" height="170" viewBox="0 0 170 170" fill="none" xmlns="http://www.w3.org/2000/svg">
<path d="M155.497 52.8726H140.626V52.689C140.626 46.3116 135.438 41.1231 129.06 41.1231H128.877V14.5032C128.877 12.9824 127.644 11.7495 126.123 11.7495H43.8769C42.3557 11.7495 41.1231 12.9824 41.1231 14.5032V41.1231H40.9395C34.5621 41.1231 29.3736 46.3112 29.3736 52.689V52.8726H14.5032C6.50626 52.8726 0 59.3788 0 67.3758V131.998C0 139.995 6.50626 146.501 14.5032 146.501H29.189C29.2514 146.501 29.3123 146.496 29.3736 146.492V146.685C29.3736 153.062 34.5621 158.251 40.9395 158.251H129.06C135.438 158.251 140.626 153.062 140.626 146.685V146.501H155.497C163.494 146.501 170 139.995 170 131.998V67.3758C170 59.3788 163.494 52.8726 155.497 52.8726ZM128.877 46.6307H129.06C132.401 46.6307 135.119 49.3485 135.119 52.689V52.8726H128.877V46.6307ZM46.6307 43.8982C46.6307 43.8908 46.6318 43.8839 46.6318 43.8769C46.6318 43.8699 46.6307 43.8626 46.6307 43.8552V17.257H123.369V43.8552C123.369 43.8626 123.368 43.8695 123.368 43.8765C123.368 43.8835 123.369 43.8908 123.369 43.8978V52.8726H46.6307V43.8982ZM34.8812 52.689C34.8812 49.3485 37.599 46.6307 40.9395 46.6307H41.1231V52.8726H34.8812V52.689ZM23.1318 58.3801H146.868V87.9374C146.868 91.2779 144.15 93.9957 140.81 93.9957H29.1901C25.8495 93.9957 23.1318 91.2779 23.1318 87.9374V58.3801ZM29.3736 117.495H26.2527C24.5318 117.495 23.1318 116.095 23.1318 114.374C23.1318 112.653 24.5318 111.253 26.2527 111.253H29.3736V117.495ZM135.119 120.227C135.119 120.234 135.118 120.241 135.118 120.248C135.118 120.255 135.119 120.263 135.119 120.27V146.685C135.119 150.025 132.401 152.743 129.06 152.743H40.9395C37.599 152.743 34.8812 150.025 34.8812 146.685V111.253H41.1231V143.747C41.1231 145.268 42.3557 146.501 43.8769 146.501H126.123C127.644 146.501 128.877 145.268 128.877 143.747V111.253H135.119V120.227ZM46.6307 140.994V111.253H123.369V140.994H46.6307ZM164.492 131.998C164.492 136.958 160.457 140.994 155.497 140.994H140.626V123.002H143.747C148.505 123.002 152.376 119.131 152.376 114.374C152.376 109.616 148.505 105.745 143.747 105.745H26.2527C21.4949 105.745 17.6242 109.616 17.6242 114.374C17.6242 119.131 21.4949 123.002 26.2527 123.002H29.3736V141.003C29.3123 140.999 29.2514 140.994 29.189 140.994H14.5032C9.54276 140.994 5.50756 136.958 5.50756 131.998V67.3758C5.50756 62.4157 9.54276 58.3801 14.5032 58.3801H17.6242V87.9374C17.6242 94.3147 22.8127 99.5032 29.1901 99.5032H140.81C147.187 99.5032 152.376 94.3147 152.376 87.9374V58.3801H155.497C160.457 58.3801 164.492 62.4157 164.492 67.3758V131.998ZM140.626 117.495V111.253H143.747C145.468 111.253 146.868 112.653 146.868 114.374C146.868 116.095 145.468 117.495 143.747 117.495H140.626Z" fill="#F4F5F7"/>
<path d="M38.0022 87.7538C42.76 87.7538 46.6307 83.8831 46.6307 79.1253C46.6307 74.3675 42.76 70.4968 38.0022 70.4968C33.2444 70.4968 29.3737 74.3675 29.3737 79.1253C29.3737 83.8831 33.2444 87.7538 38.0022 87.7538ZM38.0022 76.0043C39.7231 76.0043 41.1231 77.4043 41.1231 79.1253C41.1231 80.8462 39.7231 82.2462 38.0022 82.2462C36.2812 82.2462 34.8812 80.8462 34.8812 79.1253C34.8812 77.4043 36.2812 76.0043 38.0022 76.0043Z" fill="#F4F5F7"/>
<path d="M55.6263 81.879H61.5011C63.0223 81.879 64.2548 80.6461 64.2548 79.1252C64.2548 77.6044 63.0223 76.3715 61.5011 76.3715H55.6263C54.1052 76.3715 52.8726 77.6044 52.8726 79.1252C52.8726 80.6461 54.1052 81.879 55.6263 81.879Z" fill="#F4F5F7"/>
<path d="M73.2505 81.879H79.1252C80.6464 81.879 81.879 80.6461 81.879 79.1252C81.879 77.6044 80.6464 76.3715 79.1252 76.3715H73.2505C71.7293 76.3715 70.4967 77.6044 70.4967 79.1252C70.4967 80.6461 71.7293 81.879 73.2505 81.879Z" fill="#F4F5F7"/>
<path d="M114.374 117.495H55.6263C54.1052 117.495 52.8726 118.728 52.8726 120.248C52.8726 121.769 54.1052 123.002 55.6263 123.002H114.374C115.895 123.002 117.127 121.769 117.127 120.248C117.127 118.728 115.895 117.495 114.374 117.495Z" fill="#F4F5F7"/>
<path d="M114.374 129.244H55.6263C54.1052 129.244 52.8726 130.477 52.8726 131.998C52.8726 133.519 54.1052 134.752 55.6263 134.752H114.374C115.895 134.752 117.127 133.519 117.127 131.998C117.127 130.477 115.895 129.244 114.374 129.244Z" fill="#F4F5F7"/>
</svg>
