<svg width="151" height="150" viewBox="0 0 151 150" fill="none" xmlns="http://www.w3.org/2000/svg">
<path d="M103.214 58.4135C103.214 43.0843 90.7427 30.6132 75.4135 30.6132C60.0843 30.6132 47.6132 43.0843 47.6132 58.4135C47.6132 73.7423 60.0843 86.2134 75.4135 86.2134C90.7427 86.2134 103.214 73.7427 103.214 58.4135ZM89.3003 51.0334C89.3003 53.1444 87.5833 54.8619 85.4723 54.8619C83.3613 54.8619 81.6438 53.1444 81.6438 51.0334C81.6438 48.9224 83.3613 47.2054 85.4723 47.2054C87.5833 47.2054 89.3003 48.9229 89.3003 51.0334ZM83.6276 61.2751C82.4405 64.6723 79.2117 67.1202 75.4135 67.1202C70.6125 67.1202 66.7064 63.2146 66.7064 58.4135C66.7064 53.7016 70.4712 49.8612 75.1494 49.72C75.095 50.1503 75.0639 50.5882 75.0639 51.0334C75.0639 56.1433 78.7656 60.4017 83.6276 61.2751ZM54.1936 58.4135C54.1936 46.7128 63.7128 37.1936 75.4135 37.1936C79.7654 37.1936 83.8145 38.5123 87.1854 40.7685C86.6278 40.6755 86.0562 40.625 85.4727 40.625C82.7371 40.625 80.2462 41.6875 78.3865 43.4191C77.4122 43.2269 76.419 43.126 75.414 43.126C66.9845 43.126 60.1265 49.9841 60.1265 58.4135C60.1265 66.843 66.9845 73.7006 75.414 73.7006C83.2797 73.7006 89.775 67.7291 90.6089 60.081C93.3591 58.514 95.3284 55.7309 95.7802 52.468C96.3325 54.3561 96.6339 56.3499 96.6339 58.414C96.6339 70.1143 87.1148 79.6335 75.414 79.6335C63.7132 79.6335 54.1936 70.1139 54.1936 58.4135Z" fill="#F4F5F7"/>
<path d="M113.359 58.4135C113.359 37.4901 96.3369 20.4672 75.4135 20.4672C54.4901 20.4672 37.4676 37.4901 37.4676 58.4135C37.4676 79.3369 54.4901 96.3595 75.4135 96.3595C96.3369 96.3595 113.359 79.3374 113.359 58.4135ZM44.048 58.4135C44.048 41.1181 58.1185 27.0475 75.4135 27.0475C92.7085 27.0475 106.779 41.1181 106.779 58.4135C106.779 75.7085 92.7085 89.7791 75.4135 89.7791C58.1185 89.7791 44.048 75.7085 44.048 58.4135Z" fill="#F4F5F7"/>
<path d="M115.086 120.692H105.59C100.941 120.692 97.0476 117.408 96.1018 113.039C118.129 104.668 133.827 83.3417 133.827 58.4135C133.827 26.2039 107.623 0 75.4135 0C43.2039 0 17 26.2039 17 58.4135C17 83.3413 32.6977 104.668 54.7253 113.039C53.7795 117.408 49.8856 120.692 45.2373 120.692H35.7409C26.7591 120.692 19.4518 127.999 19.4518 136.981V143.122C19.4518 146.915 22.5372 150 26.3297 150H124.497C128.29 150 131.375 146.915 131.375 143.122V136.981C131.375 127.999 124.067 120.692 115.086 120.692ZM24.0901 65.6646C26.7104 64.2959 28.4845 61.5646 28.4845 58.414C28.4845 55.2633 26.7113 52.5289 24.0901 51.1602C27.6291 26.0012 49.2943 6.58037 75.4135 6.58037C101.536 6.58037 123.203 26.0052 126.738 51.1685C124.117 52.5355 122.343 55.2637 122.343 58.414C122.343 61.5646 124.117 64.2955 126.737 65.6642C123.2 90.8249 101.534 110.247 75.4135 110.247C49.2934 110.247 27.6273 90.8245 24.0901 65.6646ZM35.7409 127.272H45.2368C52.8222 127.272 59.2126 122.06 61.017 115.03C65.6241 116.202 70.4467 116.827 75.4131 116.827C80.3795 116.827 85.202 116.202 89.8092 115.03C91.6131 122.06 98.0039 127.272 105.589 127.272H115.085C119.984 127.272 124.047 130.919 124.702 135.641H26.1243C26.7793 130.92 30.842 127.272 35.7409 127.272ZM124.794 143.122C124.794 143.286 124.661 143.42 124.497 143.42H26.3297C26.1656 143.42 26.0322 143.286 26.0322 143.122V142.222H124.794V143.122Z" fill="#F4F5F7"/>
</svg>
