<svg width="45" height="47" viewBox="0 0 45 47" fill="none" xmlns="http://www.w3.org/2000/svg">
<path d="M22.5 30.8438C28.3155 30.8438 33.0469 24.5847 33.0469 16.8906C33.0469 9.19658 28.3155 2.9375 22.5 2.9375C16.6845 2.9375 11.9531 9.19658 11.9531 16.8906C11.9531 24.5847 16.6845 30.8438 22.5 30.8438ZM22.5 5.875C26.6927 5.875 30.2344 10.9194 30.2344 16.8906C30.2344 22.8618 26.6927 27.9062 22.5 27.9062C18.3073 27.9062 14.7656 22.8618 14.7656 16.8906C14.7656 10.9194 18.3073 5.875 22.5 5.875Z" fill="black"/>
<path d="M2.88494 33.3165L0.0724408 42.129C-0.0702935 42.5769 0.0014252 43.069 0.2658 43.4523C0.529472 43.8356 0.95416 44.0626 1.40627 44.0626H43.5938C44.0459 44.0626 44.4706 43.8356 44.7342 43.4523C44.9986 43.0697 45.071 42.5777 44.9276 42.129L42.1151 33.3165C41.9681 32.8567 41.6138 32.5028 41.1673 32.3691L31.3235 29.4316C30.9846 29.3295 30.6232 29.3655 30.3082 29.53L22.5 33.608L14.6918 29.53C14.3768 29.3655 14.0154 29.3303 13.6765 29.4316L3.83275 32.3691C3.38557 32.5028 3.03189 32.8567 2.88494 33.3165ZM13.9233 32.4132L21.8714 36.5639C22.2666 36.7702 22.7342 36.7702 23.1293 36.5639L31.0774 32.4132L39.6823 34.9805L41.6433 41.1251H3.35674L5.31775 34.9805L13.9233 32.4132Z" fill="black"/>
</svg>
