<svg width="34" height="34" viewBox="0 0 34 34" fill="none" xmlns="http://www.w3.org/2000/svg">
<g clip-path="url(#clip0_8_307)">
<path d="M16.9996 13.6192C15.136 13.6192 13.6185 15.136 13.6185 16.9996C13.6185 18.864 15.136 20.3815 16.9996 20.3815C18.864 20.3815 20.3808 18.864 20.3808 16.9996C20.3808 15.136 18.864 13.6192 16.9996 13.6192ZM16.9996 13.6192C15.136 13.6192 13.6185 15.136 13.6185 16.9996C13.6185 18.864 15.136 20.3815 16.9996 20.3815C18.864 20.3815 20.3808 18.864 20.3808 16.9996C20.3808 15.136 18.864 13.6192 16.9996 13.6192ZM22.6323 8.10664H11.3677C9.56966 8.10664 8.10664 9.56966 8.10664 11.3677V22.6323C8.10664 24.4303 9.56966 25.8934 11.3677 25.8934H22.6323C24.4303 25.8934 25.8934 24.4303 25.8934 22.6323V11.3677C25.8934 9.56966 24.4303 8.10664 22.6323 8.10664ZM16.9996 22.8554C13.7714 22.8554 11.1446 20.2286 11.1446 16.9996C11.1446 13.7714 13.7714 11.1446 16.9996 11.1446C20.2286 11.1446 22.8554 13.7714 22.8554 16.9996C22.8554 20.2286 20.2286 22.8554 16.9996 22.8554ZM23.0434 12.3554C22.2795 12.3554 21.658 11.734 21.658 10.97C21.658 10.206 22.2795 9.58458 23.0434 9.58458C23.8074 9.58458 24.4289 10.206 24.4289 10.97C24.4289 11.734 23.8074 12.3554 23.0434 12.3554ZM16.9996 13.6192C15.136 13.6192 13.6185 15.136 13.6185 16.9996C13.6185 18.864 15.136 20.3815 16.9996 20.3815C18.864 20.3815 20.3808 18.864 20.3808 16.9996C20.3808 15.136 18.864 13.6192 16.9996 13.6192ZM22.6323 8.10664H11.3677C9.56966 8.10664 8.10664 9.56966 8.10664 11.3677V22.6323C8.10664 24.4303 9.56966 25.8934 11.3677 25.8934H22.6323C24.4303 25.8934 25.8934 24.4303 25.8934 22.6323V11.3677C25.8934 9.56966 24.4303 8.10664 22.6323 8.10664ZM16.9996 22.8554C13.7714 22.8554 11.1446 20.2286 11.1446 16.9996C11.1446 13.7714 13.7714 11.1446 16.9996 11.1446C20.2286 11.1446 22.8554 13.7714 22.8554 16.9996C22.8554 20.2286 20.2286 22.8554 16.9996 22.8554ZM23.0434 12.3554C22.2795 12.3554 21.658 11.734 21.658 10.97C21.658 10.206 22.2795 9.58458 23.0434 9.58458C23.8074 9.58458 24.4289 10.206 24.4289 10.97C24.4289 11.734 23.8074 12.3554 23.0434 12.3554ZM16.9996 13.6192C15.136 13.6192 13.6185 15.136 13.6185 16.9996C13.6185 18.864 15.136 20.3815 16.9996 20.3815C18.864 20.3815 20.3808 18.864 20.3808 16.9996C20.3808 15.136 18.864 13.6192 16.9996 13.6192ZM0 0V34H34V0H0ZM28.3673 22.6323C28.3673 25.7949 25.7949 28.3673 22.6323 28.3673H11.3677C8.20512 28.3673 5.63272 25.7949 5.63272 22.6323V11.3677C5.63272 8.20512 8.20512 5.63272 11.3677 5.63272H22.6323C25.7949 5.63272 28.3673 8.20512 28.3673 11.3677V22.6323ZM22.6323 8.10664H11.3677C9.56966 8.10664 8.10664 9.56966 8.10664 11.3677V22.6323C8.10664 24.4303 9.56966 25.8934 11.3677 25.8934H22.6323C24.4303 25.8934 25.8934 24.4303 25.8934 22.6323V11.3677C25.8934 9.56966 24.4303 8.10664 22.6323 8.10664ZM16.9996 22.8554C13.7714 22.8554 11.1446 20.2286 11.1446 16.9996C11.1446 13.7714 13.7714 11.1446 16.9996 11.1446C20.2286 11.1446 22.8554 13.7714 22.8554 16.9996C22.8554 20.2286 20.2286 22.8554 16.9996 22.8554ZM23.0434 12.3554C22.2795 12.3554 21.658 11.734 21.658 10.97C21.658 10.206 22.2795 9.58458 23.0434 9.58458C23.8074 9.58458 24.4289 10.206 24.4289 10.97C24.4289 11.734 23.8074 12.3554 23.0434 12.3554ZM16.9996 13.6192C15.136 13.6192 13.6185 15.136 13.6185 16.9996C13.6185 18.864 15.136 20.3815 16.9996 20.3815C18.864 20.3815 20.3808 18.864 20.3808 16.9996C20.3808 15.136 18.864 13.6192 16.9996 13.6192ZM16.9996 13.6192C15.136 13.6192 13.6185 15.136 13.6185 16.9996C13.6185 18.864 15.136 20.3815 16.9996 20.3815C18.864 20.3815 20.3808 18.864 20.3808 16.9996C20.3808 15.136 18.864 13.6192 16.9996 13.6192ZM16.9996 13.6192C15.136 13.6192 13.6185 15.136 13.6185 16.9996C13.6185 18.864 15.136 20.3815 16.9996 20.3815C18.864 20.3815 20.3808 18.864 20.3808 16.9996C20.3808 15.136 18.864 13.6192 16.9996 13.6192ZM22.6323 8.10664H11.3677C9.56966 8.10664 8.10664 9.56966 8.10664 11.3677V22.6323C8.10664 24.4303 9.56966 25.8934 11.3677 25.8934H22.6323C24.4303 25.8934 25.8934 24.4303 25.8934 22.6323V11.3677C25.8934 9.56966 24.4303 8.10664 22.6323 8.10664ZM16.9996 22.8554C13.7714 22.8554 11.1446 20.2286 11.1446 16.9996C11.1446 13.7714 13.7714 11.1446 16.9996 11.1446C20.2286 11.1446 22.8554 13.7714 22.8554 16.9996C22.8554 20.2286 20.2286 22.8554 16.9996 22.8554ZM23.0434 12.3554C22.2795 12.3554 21.658 11.734 21.658 10.97C21.658 10.206 22.2795 9.58458 23.0434 9.58458C23.8074 9.58458 24.4289 10.206 24.4289 10.97C24.4289 11.734 23.8074 12.3554 23.0434 12.3554ZM16.9996 13.6192C15.136 13.6192 13.6185 15.136 13.6185 16.9996C13.6185 18.864 15.136 20.3815 16.9996 20.3815C18.864 20.3815 20.3808 18.864 20.3808 16.9996C20.3808 15.136 18.864 13.6192 16.9996 13.6192ZM16.9996 13.6192C15.136 13.6192 13.6185 15.136 13.6185 16.9996C13.6185 18.864 15.136 20.3815 16.9996 20.3815C18.864 20.3815 20.3808 18.864 20.3808 16.9996C20.3808 15.136 18.864 13.6192 16.9996 13.6192ZM16.9996 13.6192C15.136 13.6192 13.6185 15.136 13.6185 16.9996C13.6185 18.864 15.136 20.3815 16.9996 20.3815C18.864 20.3815 20.3808 18.864 20.3808 16.9996C20.3808 15.136 18.864 13.6192 16.9996 13.6192ZM22.6323 8.10664H11.3677C9.56966 8.10664 8.10664 9.56966 8.10664 11.3677V22.6323C8.10664 24.4303 9.56966 25.8934 11.3677 25.8934H22.6323C24.4303 25.8934 25.8934 24.4303 25.8934 22.6323V11.3677C25.8934 9.56966 24.4303 8.10664 22.6323 8.10664ZM16.9996 22.8554C13.7714 22.8554 11.1446 20.2286 11.1446 16.9996C11.1446 13.7714 13.7714 11.1446 16.9996 11.1446C20.2286 11.1446 22.8554 13.7714 22.8554 16.9996C22.8554 20.2286 20.2286 22.8554 16.9996 22.8554ZM23.0434 12.3554C22.2795 12.3554 21.658 11.734 21.658 10.97C21.658 10.206 22.2795 9.58458 23.0434 9.58458C23.8074 9.58458 24.4289 10.206 24.4289 10.97C24.4289 11.734 23.8074 12.3554 23.0434 12.3554ZM16.9996 13.6192C15.136 13.6192 13.6185 15.136 13.6185 16.9996C13.6185 18.864 15.136 20.3815 16.9996 20.3815C18.864 20.3815 20.3808 18.864 20.3808 16.9996C20.3808 15.136 18.864 13.6192 16.9996 13.6192Z" fill="#F4F5F7"/>
</g>
<defs>
<clipPath id="clip0_8_307">
<rect width="34" height="34" rx="8" fill="white"/>
</clipPath>
</defs>
</svg>
