<svg width="27" height="27" viewBox="0 0 27 27" fill="none" xmlns="http://www.w3.org/2000/svg">
<g clip-path="url(#clip0_9_331)">
<path d="M27 4.03536H7.0875L6.51766 0.720886H1.47228C0.65788 0.720886 0 1.37999 0 2.19378V3.66606H4.03655L6.63383 18.7735C6.6913 19.1061 7.01107 19.3757 7.34919 19.3757H24.791C25.6054 19.3757 26.2645 18.7172 26.2645 17.9016V16.4305H9.21889L8.85999 14.3432H22.3368C23.9631 14.3432 25.499 13.0421 25.7674 11.439L27 4.03536Z" fill="#F4F5F7"/>
<path d="M11.9042 26.2798C13.3106 26.2798 14.4507 25.1397 14.4507 23.7332C14.4507 22.3268 13.3106 21.1867 11.9042 21.1867C10.4978 21.1867 9.35767 22.3268 9.35767 23.7332C9.35767 25.1397 10.4978 26.2798 11.9042 26.2798Z" fill="#F4F5F7"/>
<path d="M18.1969 23.7326C18.1969 25.1383 19.336 26.2786 20.7416 26.2786C22.1485 26.2786 23.29 25.1383 23.29 23.7326C23.29 22.327 22.1485 21.1855 20.7416 21.1855C19.336 21.1855 18.1969 22.3276 18.1969 23.7326Z" fill="#F4F5F7"/>
</g>
<defs>
<clipPath id="clip0_9_331">
<rect width="27" height="27" fill="white"/>
</clipPath>
</defs>
</svg>
