<svg width="26" height="27" viewBox="0 0 26 27" fill="none" xmlns="http://www.w3.org/2000/svg">
<g clip-path="url(#clip0_9_351)">
<path d="M13 13.0849C16.3888 13.0849 19.136 10.232 19.136 6.71287C19.136 3.19372 16.3888 0.340881 13 0.340881C9.61119 0.340881 6.86401 3.19372 6.86401 6.71287C6.86401 10.232 9.61119 13.0849 13 13.0849Z" fill="#F4F5F7"/>
<path d="M20.2998 14.0712C20.2031 14.0029 20.0084 13.8716 20.0084 13.8716C18.4399 16.133 15.8828 17.608 13 17.608C10.117 17.608 7.55957 16.1326 5.99114 13.8708C5.99114 13.8708 5.82753 13.9821 5.74628 14.0389C2.27996 16.4635 0 20.5771 0 25.2436V26.6592H26V25.2436C26 20.5978 23.7402 16.5001 20.2998 14.0712Z" fill="#F4F5F7"/>
</g>
<defs>
<clipPath id="clip0_9_351">
<rect width="26" height="27" fill="white"/>
</clipPath>
</defs>
</svg>
