<svg width="139" height="121" viewBox="0 0 139 121" fill="none" xmlns="http://www.w3.org/2000/svg">
<path d="M118.642 30.856C116.318 18.089 103.579 8.38799 88.5733 8.38799C86.9229 8.38799 85.2635 8.50774 83.6204 8.74576C77.8454 3.16801 69.7284 0 61.0755 0C48.3805 0 37.2801 6.70771 32.7314 16.9027C31.972 16.8527 31.2126 16.8279 30.4572 16.8279C13.6626 16.8281 0 28.7941 0 43.5029C0 59.9477 15.6208 66.804 15.6208 66.804H48.9402L29.8427 89.9816H48.5592V120.055H90.4394V89.9818H109.157L90.0598 66.8043H129.939C129.939 66.8043 139 61.6198 139 50.7945C139 40.5061 130.115 32.0009 118.642 30.856ZM84.6065 84.8732V114.947H54.3924V84.8732H41.2467L69.5 50.5823L97.7533 84.8732H84.6065ZM127.721 61.6956H85.8504L69.5 41.852L53.1496 61.6956H17.2913C10.2542 57.7532 5.91488 50.8459 5.91488 43.5032C5.91488 31.612 16.9245 21.9371 30.4569 21.9371C31.7317 21.9371 36.8512 22.5532 36.8512 22.5532C36.8512 22.5532 41.0024 5.10917 61.0755 5.10917C74.7077 5.10917 81.3286 14.3938 81.3286 14.3938C81.3286 14.3938 86.1 13.4239 88.5733 13.4969C112.385 14.1998 113.319 35.83 113.319 35.83C113.319 35.83 132.293 34.8049 133.085 50.7945C133.29 54.9414 131.143 58.8692 127.721 61.6956Z" fill="#F4F5F7"/>
</svg>
