<svg width="139" height="160" viewBox="0 0 139 160" fill="none" xmlns="http://www.w3.org/2000/svg">
<path d="M65.1068 5.9375C61.6636 5.9375 58.1455 6.66908 54.7522 7.99173L65.1068 20.5787L75.4613 7.99173C72.068 6.66908 68.55 5.9375 65.1068 5.9375ZM50.286 10.046C45.6702 12.5338 41.3287 16.027 37.5861 20.1572C34.8914 23.115 32.5461 26.3829 31.3983 28.0059L15.2303 49.1053L29.9762 69.2116L25.1607 85.6357L43.0254 101.188L41.3038 94.5745L50.311 68.3637L40.156 74.9285L21.1985 49.178L31.7477 35.5397L56.0497 47.337H74.1888L98.4908 35.5397L109.045 49.178L90.0824 74.9285L79.9025 68.3395L80.152 69.1147L88.9347 94.5745L87.2131 101.188L105.053 85.6357L100.212 69.2116L114.983 49.1053L98.8152 28.0059C97.6674 26.3829 95.3221 23.115 92.6274 20.1572C88.8848 16.027 84.5434 12.5338 79.9275 10.046L65.1068 28.0301L50.286 10.046ZM54.0536 72.1669L52.8061 75.8006H77.4075L76.1599 72.1669H54.0536ZM51.1843 80.4517L47.1173 92.3458H83.0962L79.0043 80.4517H51.1843ZM46.8678 96.9969L49.9367 108.915H80.2768L83.3208 96.9969H46.8678ZM55.2512 113.566L65.1068 120.761L74.9623 113.566H55.2512Z" fill="#F4F5F7"/>
</svg>
