<svg width="112" height="110" viewBox="0 0 112 110" fill="none" xmlns="http://www.w3.org/2000/svg">
<path d="M81.0711 10.1485C74.3546 3.59796 65.461 0 56.0019 0C55.9164 0 55.8298 0.00024776 55.7443 0.000991038C36.3694 0.134533 20.5222 15.7253 20.4182 34.7552C20.3789 41.9878 22.5701 48.9387 26.7551 54.8564C31.2825 61.2585 33.6757 68.7575 33.6757 76.5421V93.2572C33.6757 102.489 41.3229 110 50.7227 110H61.2775C70.6773 110 78.3245 102.489 78.3245 93.2572V76.3055C78.3245 68.7124 80.7364 61.2687 85.2991 54.7794C89.4097 48.9337 91.5822 42.076 91.5822 34.947C91.5822 25.5658 87.8492 16.7589 81.0711 10.1485ZM74.1831 96.2498H37.8167C37.5856 95.2883 37.4594 94.2873 37.4594 93.2574V92.534H74.5403V93.2574C74.5403 94.2873 74.4144 95.2883 74.1831 96.2498ZM61.2772 106.284H50.7225C45.9063 106.284 41.6821 103.749 39.3585 99.9662H72.6412C70.3176 103.749 66.0937 106.284 61.2772 106.284ZM74.5403 88.8173H37.4594V85.1012H74.5403V88.8173ZM50.8918 65.0339H61.1077V81.385H50.8918V65.0339ZM82.1854 52.6675C77.184 59.7806 74.5403 67.9545 74.5403 76.3055V81.3848H64.8917V61.3172H62.0539V44.4352L67.7433 38.8477L65.0675 36.22L58.2702 42.8958V61.3175H53.7297V42.8958L46.9325 36.22L44.2567 38.8477L49.946 44.4352V61.3172H47.108V81.3848H37.4597V76.5421C37.4597 67.9958 34.8329 59.764 29.8633 52.7363C26.1245 47.4499 24.1669 41.2388 24.2025 34.775C24.295 17.7693 38.4566 3.8368 55.7708 3.71714C64.316 3.66362 72.3486 6.87879 78.4052 12.7856C84.4626 18.6932 87.7983 26.5635 87.7983 34.947C87.7983 41.3181 85.8576 47.4457 82.1854 52.6675Z" fill="#F4F5F7"/>
</svg>
