<svg width="139" height="135" viewBox="0 0 139 135" fill="none" xmlns="http://www.w3.org/2000/svg">
<path d="M132.484 56.9531C132.484 44.0859 121.842 33.75 108.594 33.75C106.856 33.75 105.336 33.9609 103.816 34.1719C100.775 18.1406 86.6578 6.32812 69.5 6.32812C52.3422 6.32812 38.225 18.1406 35.1844 34.1719C33.6641 33.9609 32.1437 33.75 30.4062 33.75C17.1578 33.75 6.51562 44.0859 6.51562 56.9531C6.51562 66.6562 12.5969 75.0938 21.7188 78.4688V82.2656C21.7188 83.5312 22.5875 84.375 23.8906 84.375H32.5781C33.8813 84.375 34.75 83.5312 34.75 82.2656V80.1562H41.2656V83.1094C39.5281 85.0078 38.6594 87.5391 39.3109 90.0703C39.9625 93.4453 42.7859 96.3984 46.2609 96.8203C48.8672 97.2422 51.4734 96.6094 53.4281 94.9219C55.3828 93.2344 56.4688 90.9141 56.4688 88.3828C56.4688 86.2734 55.6 84.375 54.2969 82.8984V80.1562H62.9844V114.75C61.2469 116.648 60.3781 119.18 61.0297 121.711C61.6813 125.086 64.5047 128.039 67.9797 128.461C68.4141 128.461 69.0656 128.672 69.5 128.672C71.4547 128.672 73.6266 128.039 75.1469 126.773C77.1016 125.086 78.1875 122.766 78.1875 120.234C78.1875 118.125 77.3187 116.227 76.0156 114.75V97.0312H82.5312C83.8344 97.0312 84.7031 97.875 84.7031 99.1406V106.312C82.9656 108.211 82.0969 110.742 82.7484 113.273C83.4 116.648 86.2234 119.602 89.6984 120.023C92.3047 120.445 94.9109 119.812 96.8656 118.125C98.8203 116.438 99.9062 114.117 99.9062 111.586C99.9062 109.477 99.0375 107.578 97.7344 106.102V99.1406C97.7344 90.9141 91.0016 84.375 82.5312 84.375H76.0156V80.1562H104.25V84.375H99.9062C99.0375 84.375 98.3859 84.7969 97.9516 85.6406C97.5172 86.4844 97.7344 87.3281 98.1688 87.9609L109.028 100.617C109.463 101.039 110.114 101.461 110.766 101.461C111.417 101.461 112.069 101.25 112.503 100.617L123.362 87.9609C123.797 87.3281 124.014 86.4844 123.58 85.6406C123.145 84.7969 122.494 84.375 121.625 84.375H117.281V78.4688C126.403 75.0938 132.484 66.6562 132.484 56.9531ZM30.4062 80.1562H26.0625V56.9531C26.0625 55.6875 25.1938 54.8438 23.8906 54.8438H21.9359L28.2344 47.6719L34.5328 54.8438H32.5781C31.275 54.8438 30.4062 55.6875 30.4062 56.9531V80.1562ZM54.2969 75.9375V73.8281C54.2969 72.5625 55.1656 71.7188 56.4688 71.7188H62.9844V75.9375H54.2969ZM82.5312 88.5938C88.6125 88.5938 93.3906 93.2344 93.3906 99.1406V107.156C93.3906 107.789 93.6078 108.422 94.0422 108.633C94.9109 109.477 95.5625 110.531 95.5625 111.797C95.5625 113.062 94.9109 114.117 94.0422 114.961C92.9562 115.805 91.8703 116.016 90.35 115.805C88.6125 115.594 87.0922 114.117 86.875 112.43C86.6578 110.953 87.0922 109.477 88.1781 108.633C88.6125 108.211 88.8297 107.578 88.8297 107.156V99.1406C88.8297 95.5547 86.0063 92.8125 82.3141 92.8125H73.6266C72.3234 92.8125 71.4547 93.6562 71.4547 94.9219V115.594C71.4547 116.227 71.6719 116.859 72.1063 117.07C72.975 117.914 73.6266 118.969 73.6266 120.234C73.6266 121.5 72.975 122.555 72.1063 123.398C71.0203 124.242 69.9344 124.453 68.4141 124.242C66.6766 124.031 65.1562 122.555 64.9391 120.867C64.7219 119.391 65.1562 117.914 66.2422 117.07C66.6766 116.648 66.8937 116.016 66.8937 115.594V69.6094C66.8937 68.3438 66.025 67.5 64.7219 67.5H56.0344C52.3422 67.5 49.5187 70.2422 49.5187 73.8281V83.9531C49.5187 84.5859 49.7359 85.2188 50.1703 85.4297C51.0391 86.2734 51.6906 87.3281 51.6906 88.5938C51.6906 89.8594 51.0391 90.9141 50.1703 91.7578C49.0844 92.6016 47.9984 92.8125 46.4781 92.6016C44.7406 92.3906 43.2203 90.9141 43.0031 89.2266C42.7859 87.75 43.2203 86.2734 44.3062 85.4297C44.7406 85.0078 44.9578 84.375 44.9578 83.9531V73.8281C44.9578 67.9219 49.7359 63.2812 55.8172 63.2812H64.5047C65.8078 63.2812 66.6766 62.4375 66.6766 61.1719V52.5234C67.3281 52.5234 68.1969 52.7344 68.8484 52.7344C69.5 52.7344 70.3688 52.7344 71.0203 52.5234V86.4844C71.0203 87.75 71.8891 88.5938 73.1922 88.5938H82.5312ZM69.5 48.5156C63.4188 48.5156 58.6406 43.875 58.6406 37.9688C58.6406 32.0625 63.4188 27.4219 69.5 27.4219C75.5813 27.4219 80.3594 32.0625 80.3594 37.9688C80.3594 43.875 75.5813 48.5156 69.5 48.5156ZM76.0156 75.9375V51.2578C81.2281 48.9375 84.7031 43.875 84.7031 37.9688C84.7031 29.7422 77.9703 23.2031 69.5 23.2031C61.0297 23.2031 54.2969 29.7422 54.2969 37.9688C54.2969 43.875 57.7719 48.9375 62.9844 51.2578V59.0625H56.4688C47.9984 59.0625 41.2656 65.6016 41.2656 73.8281V75.9375H34.75V59.0625H39.0938C39.9625 59.0625 40.6141 58.6406 41.0484 57.7969C41.4828 56.9531 41.2656 56.1094 40.8312 55.4766L29.9719 42.8203C29.1031 41.7656 27.3656 41.7656 26.7141 42.8203L15.8547 55.4766C15.4203 56.1094 15.2031 56.9531 15.6375 57.7969C15.8547 58.6406 16.5063 59.0625 17.375 59.0625H21.7188V74.0391C15.2031 70.875 10.8594 64.3359 10.8594 56.9531C10.8594 46.4062 19.5469 37.9688 30.4062 37.9688C32.5781 37.9688 34.5328 38.1797 36.4875 38.8125C37.1391 39.0234 37.7906 39.0234 38.4422 38.6016C39.0938 38.1797 39.3109 37.7578 39.5281 37.125C40.8313 21.9375 53.8625 10.5469 69.5 10.5469C85.1375 10.5469 98.1688 21.9375 99.6891 37.125C99.6891 37.7578 100.123 38.3906 100.775 38.6016C101.427 39.0234 102.078 39.0234 102.73 38.8125C104.467 38.1797 106.422 37.9688 108.594 37.9688C119.453 37.9688 128.141 46.4062 128.141 56.9531C128.141 64.3359 123.797 70.875 117.281 74.0391V61.1719C117.281 59.9062 116.412 59.0625 115.109 59.0625H106.422C105.119 59.0625 104.25 59.9062 104.25 61.1719V75.9375H76.0156ZM110.766 95.7656L104.467 88.5938H106.422C107.725 88.5938 108.594 87.75 108.594 86.4844V63.2812H112.938V86.4844C112.938 87.75 113.806 88.5938 115.109 88.5938H117.064L110.766 95.7656Z" fill="#F4F5F7"/>
</svg>
