<svg width="148" height="27" viewBox="0 0 148 27" fill="none" xmlns="http://www.w3.org/2000/svg">
<g clip-path="url(#clip0_2_4)">
<path d="M48.042 13.0302H44.1469V19.7033C44.1469 20.4517 44.4594 20.9298 45.0634 21.1377C45.6675 21.3456 46.6672 21.4079 48.042 21.3248V26.4595C44.4385 26.8337 41.9391 26.5011 40.5644 25.4201C39.1896 24.3391 38.4815 22.4473 38.4815 19.7033V13.0302H35.4613V7.60442H38.4815V4.02881L44.1469 2.32416V7.60442H48.042V13.0302Z" fill="white"/>
<path d="M64.5801 7.60443H70.2456V26.4595H64.5801V24.6925C63.2471 26.2308 61.3725 27 58.9563 27C56.4568 27 54.3323 26.0438 52.5827 24.1104C50.833 22.1771 49.9374 19.828 49.9374 17.0424C49.9374 14.2567 50.8122 11.9076 52.5827 9.97431C54.3531 8.04098 56.4777 7.08472 58.9563 7.08472C61.3725 7.08472 63.2471 7.85389 64.5801 9.39223V7.60443ZM56.8318 20.3893C57.6649 21.2208 58.748 21.6366 60.0811 21.6366C61.4141 21.6366 62.4972 21.2208 63.3304 20.3893C64.1635 19.5578 64.5801 18.4352 64.5801 17.0424C64.5801 15.6495 64.1635 14.527 63.3304 13.6954C62.4972 12.8639 61.4141 12.4481 60.0811 12.4481C58.748 12.4481 57.6649 12.8639 56.8318 13.6954C55.9986 14.527 55.582 15.6495 55.582 17.0424C55.582 18.4352 56.0194 19.5578 56.8318 20.3893Z" fill="white"/>
<path d="M85.4715 13.0302H81.5765V19.7033C81.5765 20.4517 81.889 20.9298 82.493 21.1377C83.097 21.3456 84.0968 21.4079 85.4715 21.3248V26.4595C81.8681 26.8337 79.3687 26.5011 77.994 25.4201C76.6192 24.3391 75.9111 22.4473 75.9111 19.7033V13.0302H72.8909V7.60442H75.9111V4.02881L81.5765 2.32416V7.60442H85.4715V13.0302Z" fill="white"/>
<path d="M93.3657 19.2875C94.0114 21.0545 95.5319 21.9276 97.9064 21.9276C99.4478 21.9276 100.656 21.4495 101.531 20.4932L106.071 23.0918C104.218 25.6903 101.468 26.9792 97.8439 26.9792C94.6779 26.9792 92.1368 26.0437 90.2414 24.152C88.3459 22.2602 87.3878 19.8904 87.3878 17.0216C87.3878 14.1528 88.3251 11.8245 90.1997 9.91192C92.0743 7.99939 94.4905 7.0639 97.4274 7.0639C100.177 7.0639 102.447 8.02017 104.28 9.91192C106.113 11.8037 107.009 14.1735 107.009 17.0216C107.01 17.7827 106.933 18.542 106.78 19.2875H93.3657ZM93.2407 15.0674H101.364C100.802 13.0925 99.4686 12.0947 97.3649 12.0947C95.1778 12.0947 93.8031 13.0925 93.2407 15.0674Z" fill="white"/>
<path d="M119.069 26.9792C116.194 26.9792 113.82 26.023 111.903 24.1104C109.987 22.1979 109.05 19.8488 109.05 17.0216C109.05 14.1943 110.008 11.8453 111.903 9.93272C113.799 8.02018 116.194 7.06392 119.069 7.06392C120.822 7.04851 122.548 7.50063 124.068 8.37359C125.543 9.20543 126.766 10.4192 127.608 11.8868L122.672 14.7764C121.985 13.3628 120.777 12.656 119.006 12.656C118.439 12.6416 117.875 12.7429 117.348 12.9538C116.822 13.1647 116.344 13.4808 115.944 13.8825C115.132 14.6933 114.736 15.7535 114.736 17.0216C114.736 18.2897 115.132 19.3499 115.944 20.1606C116.344 20.5624 116.822 20.8784 117.348 21.0893C117.875 21.3002 118.439 21.4016 119.006 21.3871C120.797 21.3871 122.005 20.6803 122.672 19.2667L127.629 22.0939C126.802 23.5711 125.584 24.7935 124.109 25.628C122.588 26.5379 120.842 27.0059 119.069 26.9792Z" fill="white"/>
<path d="M140.939 7.08468C142.959 7.08468 144.626 7.7707 145.98 9.16352C147.333 10.5563 148 12.4481 148 14.9011V26.4803H142.335V15.7327C142.335 14.6309 142.022 13.7785 141.418 13.1965C140.782 12.6004 139.936 12.2791 139.064 12.3026C137.981 12.3026 137.127 12.6352 136.502 13.2796C135.878 13.9241 135.565 14.9011 135.565 16.19V26.4803H129.9V0.0789795H135.565V9.39219C136.669 7.85385 138.481 7.08468 140.939 7.08468Z" fill="white"/>
<path d="M16.6965 0.0997925H8.98977L0 26.5011H2.23078C3.50138 26.5016 4.73928 26.0992 5.76582 25.3519C6.79237 24.6046 7.55445 23.5511 7.94207 22.3434L12.8619 7.01194L18.1108 22.3434C18.5254 23.5579 19.311 24.6122 20.3571 25.358C21.4032 26.1038 22.6573 26.5036 23.9429 26.5011H25.73L16.6965 0.0997925Z" fill="white"/>
<path d="M33.4263 20.7011C33.8998 21.1169 34.6587 21.297 35.7029 21.2416V26.6071C32.766 26.7803 30.6005 26.2211 29.2063 24.9295C27.8122 23.6378 27.1179 21.5389 27.1234 18.6327V0H32.7243V18.6327C32.7188 19.6014 32.9528 20.2909 33.4263 20.7011Z" fill="white"/>
</g>
<defs>
<clipPath id="clip0_2_4">
<rect width="148" height="27" fill="white"/>
</clipPath>
</defs>
</svg>
